<svg viewBox="0 0 178 193" xmlns="http://www.w3.org/2000/svg">
<path d="M157.64 51.8V47.88V43.96V40.04H153.72V36.12H149.8V32.2V28.28V24.36H145.88V20.44H141.96V16.52H138.04H134.12V12.6H130.2H126.28H122.36V8.67999H118.44H114.52H110.6V4.75999H106.68H102.76H98.84H94.84H91H87H83.16V8.67999H79.24H75.24H71.32H67.4H63.48V12.6H59.56H55.64V16.52H51.72V20.44H47.8V24.36H43.88V28.28H39.96V32.2H36.04V36.12H32.12V40.04V43.96V47.88V51.8V55.72H28.2V59.64V63.56V67.48V71.4V75.32V79.24V83.24H24.28H20.36H16.44V87.08V91V95V98.84V102.84V106.76H20.36H24.28H28.2H32.12H36.04V110.68V114.6H39.96H43.88V118.52H47.8V122.44H51.72H55.64V126.36H59.56H63.48H67.4H71.32H75.24H79.24V130.28V134.2H83.16H87H91H94.84H98.84V130.28V126.36H102.76H106.68H110.6H114.52H118.44H122.36H126.28H130.2H134.12V122.44H138.04V118.52H141.96V114.6H145.88V110.68H149.8V106.76H153.72V102.84H157.64V98.84V95H161.56V91V87.08V83.24V79.24V75.32V71.4V67.48V63.56V59.64V55.72V51.8H157.64Z" fill="#FFDCB2"/>
<path d="M173.32 71.4V67.48H169.4V63.56V59.64V55.72V51.8V47.88V43.96V40.04V36.12V32.2H165.48V28.28H161.56V24.36H157.64V20.44H153.72V16.52H149.8V12.6V8.68H145.88V4.76H141.96H138.04V0.839996H134.12H130.2H126.28H122.36H118.44H114.52H110.6H106.68H102.76H98.84H94.84H91H87H83.16H79.24H75.24V4.76H71.32H67.4V8.68H63.48V12.6H59.56H55.64H51.72H47.8H43.88H39.96H36.04H32.12V16.52H28.2V20.44H24.28V24.36V28.28H20.36V32.2H16.44V36.12V40.04V43.96V47.88V51.8V55.72V59.64H12.52V63.56H8.59999V67.48H4.67999V71.4V75.32H0.759995V79.24V83.24V87.08V91V95V98.84V102.84V106.76V110.68V114.6V118.52V122.44H4.67999V126.36V130.28H8.59999V134.2V138.12H12.52V142.04V145.96V149.88H16.44V153.8V157.72H20.36V161.64H24.28H28.2H32.12H36.04H39.96V157.72H43.88H47.8V153.8H51.72V149.88H55.64V145.96H59.56V142.04H63.48V138.12H67.4V134.2H71.32H75.24H79.24V130.28V126.36H75.24H71.32H67.4H63.48H59.56H55.64V122.44H51.72H47.8V118.52H43.88V114.6H39.96H36.04V110.68V106.76H32.12H28.2H24.28H20.36V102.84V98.84V95V91V87.08V83.24H24.28H28.2H32.12H36.04H39.96V79.24V75.32V71.4V67.48V63.56V59.64V55.72V51.8V47.88H43.88V43.96H47.8V40.04H51.72H55.64H59.56V36.12H63.48H67.4H71.32H75.24H79.24H83.16H87H91H94.84H98.84H102.76H106.68H110.6V40.04H114.52V43.96H118.44H122.36V47.88H126.28H130.2H134.12V51.8H138.04H141.96H145.88V55.72H149.8V59.64V63.56V67.48V71.4V75.32V79.24V83.24H153.72H157.64V87.08V91V95V98.84V102.84H153.72V106.76H149.8V110.68H145.88V114.6H141.96V118.52H138.04V122.44H134.12V126.36H130.2H126.28H122.36H118.44H114.52H110.6H106.68H102.76H98.84V130.28V134.2H102.76H106.68H110.6H114.52V138.12H118.44H122.36V142.04H126.28V145.96V149.88H130.2V153.8H134.12V157.72H138.04H141.96V161.64H145.88H149.8H153.72H157.64H161.56V157.72H165.48V153.8V149.88V145.96V142.04H169.4V138.12V134.2H173.32V130.28V126.36H177.24V122.44V118.52V114.6V110.68V106.76V102.84V98.84V95V91V87.08V83.24V79.24V75.32V71.4H173.32Z" fill="#121212"/>
<path d="M138.04 47.88H134.12H130.2H126.28H122.36H118.44V51.8H122.36H126.28H130.2H134.12H138.04H141.96V47.88H138.04Z" fill="black"/>
<path d="M118.44 51.8H114.52V55.72H118.44V51.8Z" fill="black"/>
<path d="M91 47.88H87H83.16H79.24H75.24H71.32V51.8H75.24H79.24H83.16H87H91H94.84V47.88H91Z" fill="black"/>
<path d="M71.32 51.8H67.4V55.72H71.32V51.8Z" fill="black"/>
<path d="M141.96 71.4H138.04V75.32H134.12H130.2H126.28H122.36H118.44V79.24V83.24H122.36V79.24H126.28V83.24H130.2V79.24H134.12V83.24H138.04V79.24H141.96V75.32H145.88V71.4H141.96Z" fill="#1B2430"/>
<path d="M94.84 71.4H91V75.32H87H83.16H79.24H75.24H71.32V79.24V83.24H75.24V79.24H79.24V83.24H83.16V79.24H87V83.24H91V79.24H94.84V75.32H98.84V71.4H94.84Z" fill="#1B2430"/>
<path d="M141.96 71.4H138.04V75.32H134.12H130.2H126.28H122.36H118.44V79.24V83.24H122.36V79.24H126.28V83.24H130.2V79.24H134.12V83.24H138.04V79.24H141.96V75.32H145.88V71.4H141.96Z" fill="#1B2430"/>
<path d="M94.84 71.4H91V75.32H87H83.16H79.24H75.24H71.32V79.24V83.24H75.24V79.24H79.24V83.24H83.16V79.24H87V83.24H91V79.24H94.84V75.32H98.84V71.4H94.84Z" fill="#1B2430"/>
<path d="M118.44 102.84H114.52H110.6H106.68H102.76H98.84H94.84H91V106.76H94.84V110.68H98.84V114.6H102.76H106.68H110.6H114.52V110.68H118.44V106.76H122.36V102.84H118.44Z" fill="#734046"/>
<path d="M111.32 137.72V135.08H108.76V132.44H106.12H103.48H100.84H98.2H95.56H92.92H90.28H87.64H85H82.44H79.8H77.16H74.52H71.88H69.24H66.6H63.96V135.08H61.32V137.72V140.36V143V145.64V148.28V150.92V153.56V156.2V158.76V161.4H63.96H66.6H69.24H71.88H74.52H77.16H79.8H82.44H85H87.64H90.28H92.92H95.56H98.2H100.84H103.48H106.12H108.76H111.32H113.96V158.76V156.2V153.56V150.92V148.28V145.64V143V140.36V137.72H111.32Z" fill="#FFDCB2"/>
<path d="M116.6 143V140.36H113.96V137.72H111.32V140.36V143V145.64V148.28V150.92V153.56V156.2V158.76V161.4V164.04V166.68V169.32H113.96H116.6V166.68H119.24V164.04V161.4V158.76V156.2V153.56V150.92V148.28V145.64V143H116.6Z" fill="#FFDCB2"/>
<path d="M61.32 135.08V137.72H58.76H56.12V140.36H53.48V143V145.64V148.28V150.92V153.56V156.2V158.76V161.4V164.04V166.68H56.12V169.32V171.96H58.76H61.32H63.96V169.32V166.68V164.04V161.4V158.76V156.2V153.56V150.92V148.28V145.64V143V140.36V137.72V135.08H61.32Z" fill="#FFDCB2"/>
<path d="M116.6 143V140.36H113.96V137.72H111.32V140.36V143V145.64V148.28V150.92V153.56V156.2H113.96H116.6H119.24V153.56V150.92V148.28V145.64V143H116.6Z" fill="#FED049"/>
<path d="M61.32 135.08V137.72H58.76H56.12V140.36H53.48V143V145.64V148.28V150.92V153.56V156.2H56.12H58.76H61.32H63.96V153.56V150.92V148.28V145.64V143V140.36V137.72V135.08H61.32Z" fill="#FED049"/>
<path d="M111.32 137.72V135.08H108.76V132.44H106.12H103.48H100.84H98.2H95.56H92.92H90.28H87.64H85H82.44H79.8H77.16H74.52H71.88H69.24H66.6H63.96V135.08H61.32V137.72V140.36V143V145.64V148.28V150.92V153.56V156.2V158.76V161.4H63.96H66.6H69.24H71.88H74.52H77.16H79.8H82.44H85H87.64H90.28H92.92H95.56H98.2H100.84H103.48H106.12H108.76H111.32H113.96V158.76V156.2V153.56V150.92V148.28V145.64V143V140.36V137.72H111.32Z" fill="#FED049"/>
<path d="M111.32 161.4H108.76H106.12H103.48H100.84H98.2H95.56H92.92H90.28V164.04V166.68V169.32H92.92H95.56V171.96V174.6V177.24V179.8V182.44H98.2H100.84H103.48H106.12H108.76H111.32H113.96V179.8V177.24V174.6V171.96V169.32V166.68V164.04V161.4H111.32Z" fill="#FFDCB2"/>
<path d="M87.64 161.4H85H82.44H79.8H77.16H74.52H71.88H69.24H66.6H63.96H61.32V164.04V166.68V169.32V171.96V174.6V177.24V179.8V182.44H63.96H66.6H69.24H71.88H74.52H77.16H79.8V179.8V177.24V174.6V171.96V169.32H82.44H85H87.64H90.28V166.68V164.04V161.4H87.64Z" fill="#FFDCB2"/>
<path d="M111.32 161.4H108.76H106.12H103.48H100.84H98.2H95.56H92.92H90.28V164.04V166.68V169.32H92.92H95.56V171.96V174.6V177.24V179.8V182.44H98.2H100.84H103.48H106.12H108.76H111.32H113.96V179.8V177.24V174.6V171.96V169.32V166.68V164.04V161.4H111.32Z" fill="#121212"/>
<path d="M87.64 161.4H85H82.44H79.8H77.16H74.52H71.88H69.24H66.6H63.96H61.32V164.04V166.68V169.32V171.96V174.6V177.24V179.8V182.44H63.96H66.6H69.24H71.88H74.52H77.16H79.8V179.8V177.24V174.6V171.96V169.32H82.44H85H87.64H90.28V166.68V164.04V161.4H87.64Z" fill="#121212"/>
<path d="M119.24 190.36H116.6H113.96H111.32H108.76H106.12H103.48H100.84H98.2H95.56V193H98.2H100.84H103.48H106.12H108.76H111.32H113.96H116.6H119.24H121.88V190.36H119.24Z" fill="#2B3A55"/>
<path d="M119.24 182.44H116.6H113.96H111.32H108.76H106.12H103.48H100.84H98.2H95.56V185.08V187.72V190.36H98.2H100.84H103.48H106.12H108.76H111.32H113.96H116.6H119.24H121.88V187.72V185.08V182.44H119.24Z" fill="#2B3A55"/>
<path d="M113.96 182.44V185.08V187.72H116.6V185.08V182.44H113.96Z" fill="#2B3A55"/>
<path d="M108.76 185.08V187.72H111.32V185.08V182.44H108.76V185.08Z" fill="#2B3A55"/>
<path d="M85 190.36H82.44H79.8H77.16H74.52H71.88H69.24H66.6H63.96H61.32V193H63.96H66.6H69.24H71.88H74.52H77.16H79.8H82.44H85H87.64V190.36H85Z" fill="#2B3A55"/>
<path d="M85 182.44H82.44H79.8H77.16H74.52H71.88H69.24H66.6H63.96H61.32V185.08V187.72V190.36H63.96H66.6H69.24H71.88H74.52H77.16H79.8H82.44H85H87.64V187.72V185.08V182.44H85Z" fill="#2B3A55"/>
<path d="M79.8 182.44V185.08V187.72H82.44V185.08V182.44H79.8Z" fill="#2B3A55"/>
<path d="M74.52 185.08V187.72H77.16V185.08V182.44H74.52V185.08Z" fill="#2B3A55"/>
</svg>
