<svg id="Capa_1" enable-background="new 0 0 512.125 512.125" height="512" viewBox="0 0 512.125 512.125" width="512" xmlns="http://www.w3.org/2000/svg"><g><g id="Page-1_83_"><g id="_x30_84---Technology-Repair-Person" transform="translate(-1)"><path id="Shape_202_" d="m478.995 315.743c-15.517.058-29.042 10.576-32.922 25.6h-95.078v-34.133h52.77c4.156 11.755 16.176 18.806 28.465 16.698s21.271-12.763 21.271-25.231-8.982-23.123-21.271-25.231-24.309 4.943-28.465 16.698h-52.77v-7.279c-.002-4.796 1.347-9.495 3.891-13.559l8.311-13.295h81.664c14.138 0 25.6-11.462 25.6-25.6v-10.103c11.755-4.156 18.806-16.176 16.698-28.465s-12.763-21.271-25.231-21.271-23.123 8.982-25.231 21.271 4.943 24.309 16.698 28.465v10.103c0 4.713-3.821 8.533-8.533 8.533h-70.997l13.312-21.333c4.238-6.781 6.485-14.617 6.485-22.613v-66.988h12.279c4.449.164 8.613 2.231 11.435 5.675 11.967 13.41 29.345 20.707 47.298 19.861s34.567-9.745 45.22-24.221c3.737-5.072 4.276-11.824 1.391-17.425-2.905-5.821-8.854-9.497-15.36-9.489h-19.14l-6.4-8.533 6.391-8.533h19.149c6.503.007 12.451-3.664 15.36-9.481 2.882-5.603 2.347-12.355-1.382-17.434-10.655-14.476-27.27-23.375-45.225-24.221s-35.333 6.451-47.302 19.861c-2.821 3.444-6.986 5.51-11.435 5.675h-12.715c-1.541-14.528-11.242-26.902-24.983-31.865-13.741-4.964-29.11-1.646-39.58 8.543-5.456-9.729-14.924-16.557-25.877-18.664s-22.279.722-30.955 7.733c-1.851-5.323-4.886-10.158-8.875-14.14-7.15-7.294-16.948-11.384-27.162-11.341-16.194.047-30.612 10.267-36.019 25.532-6.699-5.46-15.072-8.449-23.714-8.465-21.198.024-38.376 17.202-38.4 38.4v4.267h-29.431c-4.438-.16-8.589-2.232-11.383-5.683-11.969-13.407-29.348-20.699-47.3-19.848s-34.563 9.755-45.21 24.234c-3.716 5.072-4.245 11.81-1.365 17.399 2.918 5.83 8.883 9.508 15.403 9.498h19.123l6.4 8.533-6.4 8.533h-19.124c-6.504.006-12.448 3.681-15.36 9.498-2.879 5.59-2.351 12.327 1.365 17.399 10.651 14.485 27.269 23.39 45.228 24.237 17.959.846 35.341-6.457 47.307-19.876 2.032-2.374 4.695-4.126 7.68-5.052-.669 2.591-1.027 5.252-1.067 7.927v54.127c-.032 11.323 4.466 22.188 12.493 30.174l18.108 18.099h-64.733c-4.713 0-8.533-3.821-8.533-8.533v-10.103c11.755-4.156 18.806-16.176 16.698-28.465s-12.763-21.271-25.231-21.271-23.123 8.982-25.231 21.271 4.943 24.309 16.698 28.465v10.103c0 14.138 11.462 25.6 25.6 25.6h81.801l13.107 13.099c4.814 4.794 7.511 11.314 7.492 18.108v2.927h-61.303c-4.156-11.755-16.176-18.806-28.465-16.698s-21.271 12.763-21.271 25.231 8.982 23.123 21.271 25.231 24.309-4.943 28.465-16.698h61.303v34.133h-103.613c-4.297-16.643-20.299-27.494-37.35-25.328s-29.833 16.672-29.833 33.86 12.781 31.695 29.832 33.861 33.053-8.685 37.35-25.328h103.612v34.133h-61.303c-4.156-11.755-16.176-18.806-28.465-16.698s-21.271 12.763-21.271 25.231 8.982 23.123 21.271 25.231 24.309-4.943 28.465-16.698h61.303v17.067h-34.133c-14.138 0-25.6 11.462-25.6 25.6v10.103c-11.755 4.156-18.806 16.176-16.698 28.465s12.763 21.271 25.231 21.271 23.123-8.982 25.231-21.271-4.943-24.309-16.698-28.465v-10.103c0-4.713 3.821-8.533 8.533-8.533h34.133v42.667c0 14.138 11.462 25.6 25.6 25.6h128c14.138 0 25.6-11.462 25.6-25.6v-42.667h25.6c4.713 0 8.533 3.82 8.533 8.533v10.103c-11.755 4.156-18.806 16.176-16.698 28.465s12.763 21.271 25.231 21.271 23.123-8.982 25.231-21.271-4.943-24.309-16.698-28.465v-10.103c0-14.138-11.462-25.6-25.6-25.6h-25.6v-17.065h52.77c4.156 11.755 16.176 18.806 28.465 16.698s21.271-12.763 21.271-25.231-8.982-23.123-21.271-25.231-24.309 4.943-28.465 16.698h-52.77v-34.134h95.078c4.465 17.131 21.305 27.99 38.752 24.987s29.688-18.867 28.168-36.506c-1.517-17.639-16.292-31.174-33.995-31.148zm-51.2-25.6c4.713 0 8.533 3.82 8.533 8.533s-3.82 8.533-8.533 8.533-8.533-3.82-8.533-8.533 3.82-8.533 8.533-8.533zm34.133-102.4c4.713 0 8.533 3.821 8.533 8.533s-3.82 8.533-8.533 8.533-8.533-3.82-8.533-8.533 3.82-8.533 8.533-8.533zm-409.6 0c4.713 0 8.533 3.821 8.533 8.533s-3.821 8.533-8.533 8.533-8.533-3.82-8.533-8.533 3.82-8.533 8.533-8.533zm34.133 119.467c-4.713 0-8.533-3.82-8.533-8.533s3.821-8.533 8.533-8.533c4.713 0 8.533 3.82 8.533 8.533s-3.82 8.533-8.533 8.533zm-51.2 59.733c-9.426 0-17.067-7.641-17.067-17.067s7.641-17.067 17.067-17.067 17.067 7.641 17.067 17.067-7.641 17.067-17.067 17.067zm51.2 42.667c-4.713 0-8.533-3.82-8.533-8.533s3.821-8.533 8.533-8.533c4.713 0 8.533 3.82 8.533 8.533s-3.82 8.533-8.533 8.533zm34.134 85.333c-4.713 0-8.533-3.82-8.533-8.533s3.821-8.533 8.533-8.533c4.713 0 8.533 3.82 8.533 8.533s-3.821 8.533-8.533 8.533zm273.066 0c-4.713 0-8.533-3.82-8.533-8.533s3.821-8.533 8.533-8.533c4.713 0 8.533 3.82 8.533 8.533s-3.82 8.533-8.533 8.533zm34.134-102.4c4.713 0 8.533 3.82 8.533 8.533s-3.82 8.533-8.533 8.533-8.533-3.82-8.533-8.533 3.82-8.533 8.533-8.533zm2.312-327.108c8.498-9.529 20.827-14.737 33.583-14.186s24.59 6.802 32.235 17.028h-19.149c-5.369.011-10.423 2.538-13.653 6.827l-6.391 8.533c-4.531 6.075-4.531 14.405 0 20.48l6.4 8.533c3.223 4.297 8.281 6.827 13.653 6.827l19.371-.265c-7.605 10.332-19.465 16.683-32.28 17.286s-25.218-4.607-33.76-14.18c-6.044-7.096-14.855-11.241-24.175-11.375h-12.279v-34.133h12.279c9.317-.137 18.124-4.282 24.166-11.375zm-74.846-22.759c11.782 0 21.333 9.551 21.333 21.333v59.733c0 11.782-9.551 21.333-21.333 21.333s-21.333-9.551-21.333-21.333v-59.732c0-5.658 2.248-11.084 6.248-15.085 4.001-4.001 9.427-6.249 15.085-6.249zm-59.733-8.533c11.782 0 21.333 9.551 21.333 21.333v68.267c0 11.782-9.551 21.333-21.333 21.333s-21.333-9.551-21.333-21.333v-68.267c0-5.658 2.248-11.084 6.248-15.085 4.001-4 9.427-6.248 15.085-6.248zm-81.067 4.267c0-11.782 9.551-21.333 21.333-21.333 11.751.074 21.259 9.582 21.333 21.333v85.333c-.018 10.274-7.356 19.075-17.459 20.941.2-1.283.331-2.577.393-3.874-.052-16.22-10.303-30.653-25.6-36.045zm-38.4-4.267c11.751.074 21.259 9.582 21.333 21.333v46.933h-42.667v-46.933c.001-11.782 9.552-21.333 21.334-21.333zm-91.938 88.183c-8.488 9.523-20.806 14.727-33.551 14.175s-24.566-6.803-32.198-17.025h19.123c5.367-.021 10.416-2.546 13.653-6.827l6.494-8.644c4.394-6.091 4.353-14.322-.102-20.369l-6.426-8.533c-3.237-4.281-8.287-6.805-13.653-6.827l-19.413.282c7.593-10.332 19.442-16.689 32.25-17.301s25.209 4.584 33.755 14.144c6.021 7.131 14.843 11.295 24.175 11.409h29.431v25.6c-8.237.031-16.18 3.065-22.34 8.533h-7.091c-9.307.119-18.103 4.272-24.107 11.383zm249.805 160.538v203.546c0 4.713-3.821 8.533-8.533 8.533h-128c-4.713 0-8.533-3.82-8.533-8.533v-199.194c.032-11.323-4.466-22.188-12.493-30.174l-48.282-48.265c-4.814-4.794-7.511-11.314-7.492-18.108v-54.127c0-9.426 7.641-17.067 17.067-17.067h64c11.782 0 21.333 9.551 21.333 21.333s-9.551 21.333-21.333 21.333h-55.467c-4.713 0-8.533 3.82-8.533 8.533s3.821 8.533 8.533 8.533h55.467c12.867-.015 24.872-6.474 31.974-17.203.717 0 1.408.137 2.159.137 11.657-.041 22.657-5.406 29.867-14.566 7.184 9.192 18.2 14.565 29.867 14.565s22.683-5.372 29.867-14.565c12.31 15.701 34.66 19.221 51.2 8.064v39.381c.002 4.795-1.347 9.495-3.891 13.559l-32.29 51.695c-4.235 6.776-6.482 14.602-6.487 22.59zm145.067 84.079c-9.426 0-17.067-7.641-17.067-17.067s7.641-17.067 17.067-17.067 17.067 7.641 17.067 17.067c-.001 9.426-7.642 17.067-17.067 17.067z"/></g></g></g></svg>